<svg id="aa1f8b80-b45c-493d-b387-a44ba4da6183" data-name="artwork" xmlns="http://www.w3.org/2000/svg" width="760" height="456.101"><defs><style>.bca6adb0-0491-4d23-8793-bea3b90b9eba,.ff5a185c-31a4-4662-bb7a-c0ac9b76c394{fill:none}.bca6adb0-0491-4d23-8793-bea3b90b9eba{stroke:#151515;stroke-linecap:round;stroke-linejoin:round}.b5144887-ea7b-4eac-b7d8-feaecfeca6a1,.e1fdf589-5055-4112-9d2f-f1ef277d222b,.ffb75daa-4c1b-4f50-a8e4-f04b7a8dcb7c{fill:#151515}.b325d0ca-cea5-4ad7-955d-68b113119c8c{fill:#fff}.b5144887-ea7b-4eac-b7d8-feaecfeca6a1,.e1fdf589-5055-4112-9d2f-f1ef277d222b{font-size:11px}.b5144887-ea7b-4eac-b7d8-feaecfeca6a1{font-family:RedHatText,&quot;Red Hat Text&quot;,Overpass,&quot;Helvetica Neue&quot;,Arial,sans-serif;font-style:italic}.affd2bcf-853f-4016-9ebc-de67aef42154{fill:#e8e8e8}.e1fdf589-5055-4112-9d2f-f1ef277d222b{font-family:RedHatText,&quot;Red Hat Text&quot;,Overpass,&quot;Helvetica Neue&quot;,Arial,sans-serif;font-weight:500}.ff5a185c-31a4-4662-bb7a-c0ac9b76c394{stroke:#e8e8e8;stroke-miterlimit:10;stroke-width:1.5px}.f22a5c7a-19e6-4161-9a8e-cea48c749e36{fill:#d9e8f7}</style></defs><path class="bca6adb0-0491-4d23-8793-bea3b90b9eba" d="M335 211.711v-41.306"/><path class="ffb75daa-4c1b-4f50-a8e4-f04b7a8dcb7c" d="M339.986 210.252L335 218.887l-4.986-8.635h9.972zM339.986 171.864L335 163.229l-4.986 8.635h9.972z"/><path class="b325d0ca-cea5-4ad7-955d-68b113119c8c" d="M323.5 180.575h23v20.965h-23z"/><text class="b5144887-ea7b-4eac-b7d8-feaecfeca6a1" transform="translate(289.153 194.182)">Controller API calls</text><path class="bca6adb0-0491-4d23-8793-bea3b90b9eba" d="M490 211.711v-50.982"/><path class="ffb75daa-4c1b-4f50-a8e4-f04b7a8dcb7c" d="M494.986 210.252L490 218.887l-4.986-8.635h9.972z"/><path class="b325d0ca-cea5-4ad7-955d-68b113119c8c" d="M478.5 180.575h23v20.965h-23z"/><text class="b5144887-ea7b-4eac-b7d8-feaecfeca6a1" transform="translate(430.375 194.182)">Request service artifacts</text><text transform="translate(678.091 439.119)" font-size="10" fill="#f3f3f3" font-family="RedHatText,&quot;Red Hat Text&quot;,Overpass,&quot;Helvetica Neue&quot;,Arial,sans-serif">99_RHPAM_0920</text><path fill="none" d="M.01 416.101h760v40H.01z"/><path class="bca6adb0-0491-4d23-8793-bea3b90b9eba" d="M412.5 111.007V60.525"/><path class="ffb75daa-4c1b-4f50-a8e4-f04b7a8dcb7c" d="M417.486 109.548l-4.986 8.635-4.986-8.635h9.972z"/><path class="affd2bcf-853f-4016-9ebc-de67aef42154" d="M260 20.683h305v40H260z"/><text class="e1fdf589-5055-4112-9d2f-f1ef277d222b" transform="translate(366.813 44.008)">Client application</text><path class="b325d0ca-cea5-4ad7-955d-68b113119c8c" d="M401 75.11h23v20.965h-23z"/><text class="b5144887-ea7b-4eac-b7d8-feaecfeca6a1" transform="translate(392.591 88.716)">API calls</text><path class="bca6adb0-0491-4d23-8793-bea3b90b9eba" d="M335 306.387v82.982"/><path class="ffb75daa-4c1b-4f50-a8e4-f04b7a8dcb7c" d="M330.014 387.91l4.986 8.635 4.986-8.635h-9.972z"/><path class="affd2bcf-853f-4016-9ebc-de67aef42154" d="M260 398.887h305v40H260z"/><text class="e1fdf589-5055-4112-9d2f-f1ef277d222b" transform="translate(391.243 422.211)">Storage</text><path class="ff5a185c-31a4-4662-bb7a-c0ac9b76c394" d="M155 271.387v40H5"/><path class="ff5a185c-31a4-4662-bb7a-c0ac9b76c394" d="M160 276.387v40H10"/><path class="affd2bcf-853f-4016-9ebc-de67aef42154" d="M260 120.683h305v40H260z"/><text class="e1fdf589-5055-4112-9d2f-f1ef277d222b" transform="translate(386.298 143.73)">KIE server</text><path class="f22a5c7a-19e6-4161-9a8e-cea48c749e36" d="M415 221.387h150v40H415z"/><text class="e1fdf589-5055-4112-9d2f-f1ef277d222b" transform="translate(444.845 244.711)">Maven repository</text><path class="affd2bcf-853f-4016-9ebc-de67aef42154" d="M415 311.387h150v40H415z"/><text class="e1fdf589-5055-4112-9d2f-f1ef277d222b" transform="translate(467.895 334.434)">Indexing</text><path class="f22a5c7a-19e6-4161-9a8e-cea48c749e36" d="M260 221.387h150v40H260z"/><text class="e1fdf589-5055-4112-9d2f-f1ef277d222b" transform="translate(308.721 244.711)">Controller</text><path class="f22a5c7a-19e6-4161-9a8e-cea48c749e36" d="M260 266.387h305v40H260z"/><text class="e1fdf589-5055-4112-9d2f-f1ef277d222b" transform="translate(369.414 289.711)">Business Central</text><path class="affd2bcf-853f-4016-9ebc-de67aef42154" d="M610 221.387h150v40H610z"/><text class="e1fdf589-5055-4112-9d2f-f1ef277d222b" transform="translate(659.76 238.434)">CI/CD for<tspan x="-11.813" y="12">KJAR projects</tspan></text><g><path class="bca6adb0-0491-4d23-8793-bea3b90b9eba" d="M250.324 286.387H150"/><path class="ffb75daa-4c1b-4f50-a8e4-f04b7a8dcb7c" d="M248.865 281.4l8.635 4.987-8.635 4.986V281.4z"/></g><g><path class="bca6adb0-0491-4d23-8793-bea3b90b9eba" d="M600.324 241.387h-25.648"/><path class="ffb75daa-4c1b-4f50-a8e4-f04b7a8dcb7c" d="M598.865 236.4l8.635 4.987-8.635 4.986V236.4zM576.135 236.4l-8.635 4.987 8.635 4.986V236.4z"/></g><path class="b325d0ca-cea5-4ad7-955d-68b113119c8c" d="M323.5 341.613h23v31.706h-23z"/><text class="b5144887-ea7b-4eac-b7d8-feaecfeca6a1" transform="translate(300.774 354.59)">Access .niogit,<tspan x="-5.506" y="12">Maven repo files</tspan></text><path class="affd2bcf-853f-4016-9ebc-de67aef42154" d="M0 266.387h150v40H0z"/><text class="e1fdf589-5055-4112-9d2f-f1ef277d222b" transform="translate(60.408 289.433)">Users</text><path class="b325d0ca-cea5-4ad7-955d-68b113119c8c" d="M178.221 275.904h54.307v20.965h-54.307z"/><text class="b5144887-ea7b-4eac-b7d8-feaecfeca6a1" transform="translate(182.721 289.511)">UI access</text></svg>