<svg id="be41d769-193e-424c-9c09-200f267f7d60" data-name="artwork" xmlns="http://www.w3.org/2000/svg" width="760" height="690"><defs><style>.f371e27e-9a65-4c48-b4c1-653215d0451c{fill:#d9e8f7}.abae2c57-4c63-45c1-97fa-8aafdef3fbd0,.b03c401b-770f-41ea-bc4a-8336dc979d7c,.bc4640e4-6593-4b04-b622-f18fdd431ff3,.e5f911bf-7d8f-4e7b-82e6-876851a444dd,.f859e984-eb93-4155-b7e9-5cbdc828a20f{fill:none}.e5f911bf-7d8f-4e7b-82e6-876851a444dd{stroke:#bfd9f2}.bc4640e4-6593-4b04-b622-f18fdd431ff3,.e5f911bf-7d8f-4e7b-82e6-876851a444dd{stroke-miterlimit:10;stroke-width:1.5px}.b03c401b-770f-41ea-bc4a-8336dc979d7c{stroke:#151515}.abae2c57-4c63-45c1-97fa-8aafdef3fbd0,.b03c401b-770f-41ea-bc4a-8336dc979d7c,.f859e984-eb93-4155-b7e9-5cbdc828a20f{stroke-linecap:round;stroke-linejoin:round}.aa8ec0f2-668c-41ba-a1d2-f5ffadafde02,.af402a34-1924-4671-b688-841d45f96b8e,.b5b9b2ca-2e5b-48e5-b129-2fe3a90d31cd,.ecb39306-e34a-4882-b52e-aad39bd40e6b{fill:#151515}.bc4640e4-6593-4b04-b622-f18fdd431ff3{stroke:#e8e8e8}.abae2c57-4c63-45c1-97fa-8aafdef3fbd0,.f859e984-eb93-4155-b7e9-5cbdc828a20f{stroke:#fff}.abae2c57-4c63-45c1-97fa-8aafdef3fbd0{stroke-width:8px}.aab850df-1fa3-4d53-81a5-be0b9a84236a{fill:#e8e8e8}.aa8ec0f2-668c-41ba-a1d2-f5ffadafde02,.ae81a613-07fd-4513-b301-af3b06a01c80,.af402a34-1924-4671-b688-841d45f96b8e,.b5b9b2ca-2e5b-48e5-b129-2fe3a90d31cd{font-size:11px}.af402a34-1924-4671-b688-841d45f96b8e{font-family:RedHatText,&quot;Red Hat Text&quot;,Overpass,&quot;Helvetica Neue&quot;,Arial,sans-serif;font-weight:500}.ae81a613-07fd-4513-b301-af3b06a01c80,.f6b19c48-befa-44b4-bccf-657449b60c1c{fill:#fff}.b5b9b2ca-2e5b-48e5-b129-2fe3a90d31cd{font-family:RedHatText,&quot;Red Hat Text&quot;,Overpass,&quot;Helvetica Neue&quot;,Arial,sans-serif;font-style:italic}.aa8ec0f2-668c-41ba-a1d2-f5ffadafde02,.ae81a613-07fd-4513-b301-af3b06a01c80{font-family:RedHatText,&quot;Red Hat Text&quot;,Overpass,&quot;Helvetica Neue&quot;,Arial,sans-serif;font-weight:700}.f859e984-eb93-4155-b7e9-5cbdc828a20f{stroke-width:2px;stroke-dasharray:4}</style></defs><path class="f371e27e-9a65-4c48-b4c1-653215d0451c" d="M160.01 155.683h135v110h-135z"/><path class="e5f911bf-7d8f-4e7b-82e6-876851a444dd" d="M275.01 205.683v40h-95"/><path class="e5f911bf-7d8f-4e7b-82e6-876851a444dd" d="M280.01 205.683v45h-95"/><path class="f371e27e-9a65-4c48-b4c1-653215d0451c" d="M160.01 379.768h440v146h-440z"/><path class="f371e27e-9a65-4c48-b4c1-653215d0451c" transform="rotate(-180 532.49 210.683)" d="M464.99 155.683h135v110h-135z"/><path class="b03c401b-770f-41ea-bc4a-8336dc979d7c" d="M269.89 220.863h52.62v196.144"/><path class="ecb39306-e34a-4882-b52e-aad39bd40e6b" d="M317.524 415.548l4.986 8.635 4.987-8.635h-9.973z"/><path class="b03c401b-770f-41ea-bc4a-8336dc979d7c" d="M480.11 220.683h-42.6v196.324"/><path class="ecb39306-e34a-4882-b52e-aad39bd40e6b" d="M432.524 415.548l4.986 8.635 4.987-8.635h-9.973z"/><path class="b03c401b-770f-41ea-bc4a-8336dc979d7c" d="M380.01 133.183V60.525"/><path class="bc4640e4-6593-4b04-b622-f18fdd431ff3" d="M140.01 384.768v40h-95"/><path class="bc4640e4-6593-4b04-b622-f18fdd431ff3" d="M145.01 389.768v40h-95"/><path class="b03c401b-770f-41ea-bc4a-8336dc979d7c" d="M227.51 622.007v-12.824h260v-97.5"/><path class="ecb39306-e34a-4882-b52e-aad39bd40e6b" d="M232.497 620.548l-4.987 8.635-4.986-8.635h9.973z"/><path class="b03c401b-770f-41ea-bc4a-8336dc979d7c" d="M252.51 609.183v-97.5"/><path class="abae2c57-4c63-45c1-97fa-8aafdef3fbd0" d="M380.01 629.183v-72.5"/><path class="b03c401b-770f-41ea-bc4a-8336dc979d7c" d="M380.01 622.007v-65.324h92.5v-45"/><path class="ecb39306-e34a-4882-b52e-aad39bd40e6b" d="M384.997 620.548l-4.987 8.635-4.986-8.635h9.973z"/><path class="b03c401b-770f-41ea-bc4a-8336dc979d7c" d="M267.51 511.683v45h112.5"/><path class="aab850df-1fa3-4d53-81a5-be0b9a84236a" d="M160.01 631.683h135v40h-135z"/><text class="af402a34-1924-4671-b688-841d45f96b8e" transform="translate(187.389 655.008)">NFS/GlusterFS</text><path class="aab850df-1fa3-4d53-81a5-be0b9a84236a" d="M312.51 631.683h135v40h-135z"/><text class="af402a34-1924-4671-b688-841d45f96b8e" transform="translate(355.79 655.008)">DataGrid</text><path class="abae2c57-4c63-45c1-97fa-8aafdef3fbd0" d="M532.51 629.183v-87.5h-250"/><path class="aab850df-1fa3-4d53-81a5-be0b9a84236a" d="M465.01 631.683h135v40h-135z"/><text class="af402a34-1924-4671-b688-841d45f96b8e" transform="translate(518.822 655.008)">AMQ</text><path class="b03c401b-770f-41ea-bc4a-8336dc979d7c" d="M502.51 541.683V521.36"/><path class="ecb39306-e34a-4882-b52e-aad39bd40e6b" d="M507.497 522.819l-4.987-8.636-4.986 8.636h9.973z"/><path class="f6b19c48-befa-44b4-bccf-657449b60c1c" d="M390.01 426.683h95v40h-95z"/><text class="af402a34-1924-4671-b688-841d45f96b8e" transform="translate(420.257 443.508)">Maven<tspan x="-9.41" y="12">repository</tspan></text><path class="b03c401b-770f-41ea-bc4a-8336dc979d7c" d="M532.51 622.007v-80.324h-250V521.36"/><path class="ecb39306-e34a-4882-b52e-aad39bd40e6b" d="M537.497 620.548l-4.987 8.635-4.986-8.635h9.973zM287.497 522.819l-4.987-8.636-4.986 8.636h9.973z"/><path class="f6b19c48-befa-44b4-bccf-657449b60c1c" d="M275.01 426.683h95v40h-95z"/><text class="af402a34-1924-4671-b688-841d45f96b8e" transform="translate(305.257 443.508)">Maven<tspan x="-9.41" y="12">repository</tspan></text><path class="f6b19c48-befa-44b4-bccf-657449b60c1c" d="M242.01 569.051h23v31.706h-23zM521.342 569.051h23v31.706h-23zM366.915 579.792h23v20.965h-23z"/><text class="b5b9b2ca-2e5b-48e5-b129-2fe3a90d31cd" transform="translate(218.341 581.683)">Access .niogit,<tspan x="-5.506" y="12">Maven repo files</tspan></text><text class="b5b9b2ca-2e5b-48e5-b129-2fe3a90d31cd" transform="translate(518.453 581.684)">Event<tspan x="-9.746" y="12">messages</tspan></text><text class="b5b9b2ca-2e5b-48e5-b129-2fe3a90d31cd" transform="translate(123.603 290.863)">Update state</text><text class="b5b9b2ca-2e5b-48e5-b129-2fe3a90d31cd" transform="translate(359.611 593.683)">Indexing</text><path class="b03c401b-770f-41ea-bc4a-8336dc979d7c" d="M517.49 146.007v-12.824H227.511v12.824"/><path class="ecb39306-e34a-4882-b52e-aad39bd40e6b" d="M522.476 144.548l-4.986 8.635-4.987-8.635h9.973zM222.525 144.548l4.986 8.635 4.986-8.635h-9.972z"/><path class="aab850df-1fa3-4d53-81a5-be0b9a84236a" d="M312.51 20.683h135v40h-135z"/><text class="af402a34-1924-4671-b688-841d45f96b8e" transform="translate(346.247 44.008)">Smart router</text><path class="f6b19c48-befa-44b4-bccf-657449b60c1c" d="M366.915 96.11h23v20.965h-23z"/><text class="b5b9b2ca-2e5b-48e5-b129-2fe3a90d31cd" transform="translate(350.525 109.716)">Routed calls</text><path class="b03c401b-770f-41ea-bc4a-8336dc979d7c" d="M532.49 146.007V60.525"/><path class="ecb39306-e34a-4882-b52e-aad39bd40e6b" d="M537.476 144.548l-4.986 8.635-4.987-8.635h9.973z"/><path class="aab850df-1fa3-4d53-81a5-be0b9a84236a" d="M464.99 20.683h135v40h-135z"/><text class="af402a34-1924-4671-b688-841d45f96b8e" transform="translate(486.802 44.008)">Client application</text><path class="f6b19c48-befa-44b4-bccf-657449b60c1c" d="M520.99 75.11h23v20.965h-23z"/><text class="b5b9b2ca-2e5b-48e5-b129-2fe3a90d31cd" transform="translate(512.581 88.716)">API calls</text><path class="b03c401b-770f-41ea-bc4a-8336dc979d7c" d="M99.941 275.36v30.323H215.01v-65"/><path class="ecb39306-e34a-4882-b52e-aad39bd40e6b" d="M94.955 276.819l4.986-8.636 4.986 8.636h-9.972z"/><path class="b03c401b-770f-41ea-bc4a-8336dc979d7c" d="M92.51 155.683v-20h122.5v55.324"/><path class="ecb39306-e34a-4882-b52e-aad39bd40e6b" d="M210.024 189.548l4.986 8.635 4.987-8.635h-9.973z"/><path class="b03c401b-770f-41ea-bc4a-8336dc979d7c" d="M659.99 155.683v-20h-112.5v55.324"/><path class="ecb39306-e34a-4882-b52e-aad39bd40e6b" d="M542.503 189.548l4.987 8.635 4.986-8.635h-9.973z"/><circle class="ecb39306-e34a-4882-b52e-aad39bd40e6b" cx="155.233" cy="304.362" r="8.5"/><text class="ae81a613-07fd-4513-b301-af3b06a01c80" transform="translate(151.699 308.148)">2</text><text class="b5b9b2ca-2e5b-48e5-b129-2fe3a90d31cd" transform="translate(120.819 340.863)">Trigger rollout</text><path class="b03c401b-770f-41ea-bc4a-8336dc979d7c" d="M84.941 265.683v90H230.01V275.36"/><path class="ecb39306-e34a-4882-b52e-aad39bd40e6b" d="M234.997 276.819l-4.987-8.636-4.986 8.636h9.973z"/><circle class="ecb39306-e34a-4882-b52e-aad39bd40e6b" cx="155.233" cy="354.362" r="8.5"/><text class="ae81a613-07fd-4513-b301-af3b06a01c80" transform="translate(151.501 358.148)">3</text><path class="abae2c57-4c63-45c1-97fa-8aafdef3fbd0" d="M321.732 355.683h132.32M321.732 335.683h132.32"/><path class="b03c401b-770f-41ea-bc4a-8336dc979d7c" d="M245.01 426.683V275.3"/><path class="ecb39306-e34a-4882-b52e-aad39bd40e6b" d="M249.997 276.759l-4.987-8.635-4.986 8.635h9.973z"/><path class="aab850df-1fa3-4d53-81a5-be0b9a84236a" d="M40.01 155.683h120v40h-120z"/><text class="af402a34-1924-4671-b688-841d45f96b8e" transform="translate(57.952 178.73)">Database server</text><path class="f859e984-eb93-4155-b7e9-5cbdc828a20f" d="M159.01 155.683v40"/><path class="b03c401b-770f-41ea-bc4a-8336dc979d7c" d="M584.992 446.683h30.324"/><path class="ecb39306-e34a-4882-b52e-aad39bd40e6b" d="M613.857 451.67l8.635-4.987-8.635-4.986v9.973z"/><path class="e5f911bf-7d8f-4e7b-82e6-876851a444dd" d="M579.99 205.683v40h-95"/><path class="e5f911bf-7d8f-4e7b-82e6-876851a444dd" d="M584.99 210.683v40h-95"/><path class="b03c401b-770f-41ea-bc4a-8336dc979d7c" d="M517.49 426.683V275.3"/><path class="ecb39306-e34a-4882-b52e-aad39bd40e6b" d="M522.476 276.759l-4.986-8.635-4.987 8.635h9.973z"/><path class="aab850df-1fa3-4d53-81a5-be0b9a84236a" d="M599.99 155.683h120v40h-120z"/><text class="af402a34-1924-4671-b688-841d45f96b8e" transform="translate(617.932 178.73)">Database server</text><path class="f859e984-eb93-4155-b7e9-5cbdc828a20f" d="M600.99 155.683v45"/><path class="f371e27e-9a65-4c48-b4c1-653215d0451c" d="M160.01 392.906h187.744v15.952H160.01zM160.01 168.821h135v15.952h-135zM464.99 168.821h135v15.952h-135z"/><text class="aa8ec0f2-668c-41ba-a1d2-f5ffadafde02" transform="translate(175.01 404.03)">OpenShift Deployment Config</text><path class="b03c401b-770f-41ea-bc4a-8336dc979d7c" d="M584.99 491.683h157v-246h-12.324"/><path class="ecb39306-e34a-4882-b52e-aad39bd40e6b" d="M731.125 240.697l-8.635 4.986 8.635 4.987v-9.973z"/><path class="b03c401b-770f-41ea-bc4a-8336dc979d7c" d="M175.01 491.683h-157v-246h12.324"/><path class="ecb39306-e34a-4882-b52e-aad39bd40e6b" d="M28.875 250.67l8.635-4.987-8.635-4.986v9.973z"/><path class="b03c401b-770f-41ea-bc4a-8336dc979d7c" d="M150.334 471.768H87.51v-52"/><path class="ecb39306-e34a-4882-b52e-aad39bd40e6b" d="M148.875 466.782l8.635 4.986-8.635 4.986v-9.972z"/><circle class="ecb39306-e34a-4882-b52e-aad39bd40e6b" cx="437.51" cy="250.244" r="8.5"/><text class="ae81a613-07fd-4513-b301-af3b06a01c80" transform="translate(433.465 254.029)">4</text><path class="f6b19c48-befa-44b4-bccf-657449b60c1c" d="M76.01 437.857h23v20.965h-23z"/><text class="b5b9b2ca-2e5b-48e5-b129-2fe3a90d31cd" transform="translate(64.856 451.463)">UI access</text><path class="f6b19c48-befa-44b4-bccf-657449b60c1c" d="M9.579 327.256h23v20.965h-23z"/><text class="b5b9b2ca-2e5b-48e5-b129-2fe3a90d31cd" transform="translate(.031 340.863)">Discover</text><path class="f6b19c48-befa-44b4-bccf-657449b60c1c" d="M726.99 327.256h23v20.965h-23z"/><text class="b5b9b2ca-2e5b-48e5-b129-2fe3a90d31cd" transform="translate(717.441 340.863)">Discover</text><path class="b03c401b-770f-41ea-bc4a-8336dc979d7c" d="M245.01 335.683h257.5V275.36"/><path class="ecb39306-e34a-4882-b52e-aad39bd40e6b" d="M507.497 276.819l-4.987-8.636-4.986 8.636h9.973z"/><path class="abae2c57-4c63-45c1-97fa-8aafdef3fbd0" d="M260.01 320.486v31.305"/><path class="b03c401b-770f-41ea-bc4a-8336dc979d7c" d="M517.49 355.683H260.011V275.36"/><path class="ecb39306-e34a-4882-b52e-aad39bd40e6b" d="M264.997 276.819l-4.986-8.636-4.986 8.636h9.972z"/><circle class="ecb39306-e34a-4882-b52e-aad39bd40e6b" cx="380.01" cy="334.362" r="8.5"/><text class="ae81a613-07fd-4513-b301-af3b06a01c80" transform="translate(377.643 338.148)">1</text><text class="b5b9b2ca-2e5b-48e5-b129-2fe3a90d31cd" transform="translate(341.329 320.863)">Update services</text><circle class="ecb39306-e34a-4882-b52e-aad39bd40e6b" cx="380.01" cy="355.858" r="8.5"/><text class="ae81a613-07fd-4513-b301-af3b06a01c80" transform="translate(377.643 359.643)">1</text><path class="f6b19c48-befa-44b4-bccf-657449b60c1c" d="M175.01 200.683h95v40h-95z"/><text class="af402a34-1924-4671-b688-841d45f96b8e" transform="translate(196.309 224.008)">KIE server</text><path class="aab850df-1fa3-4d53-81a5-be0b9a84236a" d="M40.01 225.683h120v40h-120z"/><text class="af402a34-1924-4671-b688-841d45f96b8e" transform="translate(71.268 249.008)">ConfigMap</text><path class="f859e984-eb93-4155-b7e9-5cbdc828a20f" d="M159.01 225.683v40"/><path class="f6b19c48-befa-44b4-bccf-657449b60c1c" d="M175.01 426.683h95v40h-95z"/><text class="af402a34-1924-4671-b688-841d45f96b8e" transform="translate(196.232 450.008)">Controller</text><path class="aab850df-1fa3-4d53-81a5-be0b9a84236a" d="M40.01 379.768h95v40h-95z"/><text class="af402a34-1924-4671-b688-841d45f96b8e" transform="translate(72.919 402.815)">Users</text><path class="aab850df-1fa3-4d53-81a5-be0b9a84236a" d="M624.99 426.683h95v40h-95z"/><text class="af402a34-1924-4671-b688-841d45f96b8e" transform="translate(647.25 443.73)">CI/CD for<tspan x="-11.813" y="12">KJAR projects</tspan></text><path class="f6b19c48-befa-44b4-bccf-657449b60c1c" d="M490.01 426.683h95v40h-95z"/><text class="af402a34-1924-4671-b688-841d45f96b8e" transform="translate(511.232 450.008)">Controller</text><g><path class="b03c401b-770f-41ea-bc4a-8336dc979d7c" d="M365.01 70.202v15.323h-137.5v-25"/><path class="ecb39306-e34a-4882-b52e-aad39bd40e6b" d="M360.024 71.661l4.986-8.636 4.987 8.636h-9.973z"/></g><g><path class="aab850df-1fa3-4d53-81a5-be0b9a84236a" d="M160.01 20.683h135v40h-135z"/><text class="af402a34-1924-4671-b688-841d45f96b8e" transform="translate(181.823 44.008)">Client application</text></g><path class="f6b19c48-befa-44b4-bccf-657449b60c1c" d="M270.269 75.11h48.969v20.965h-48.969z"/><text class="b5b9b2ca-2e5b-48e5-b129-2fe3a90d31cd" transform="translate(274.844 88.716)">API calls</text><text class="aa8ec0f2-668c-41ba-a1d2-f5ffadafde02" transform="translate(175.01 180.787)">Deployment Config</text><g><circle class="ecb39306-e34a-4882-b52e-aad39bd40e6b" cx="322.51" cy="250.244" r="8.5"/><text class="ae81a613-07fd-4513-b301-af3b06a01c80" transform="translate(318.465 254.029)">4</text></g><text class="b5b9b2ca-2e5b-48e5-b129-2fe3a90d31cd" transform="translate(337.177 247.368)">Request<tspan x="0" y="12">service artifacts</tspan></text><text class="aa8ec0f2-668c-41ba-a1d2-f5ffadafde02" transform="translate(479.99 180.787)">Deployment Config</text><text class="b5b9b2ca-2e5b-48e5-b129-2fe3a90d31cd" transform="translate(573.137 290.863)">Update state</text><g><path class="b03c401b-770f-41ea-bc4a-8336dc979d7c" d="M652.559 275.36v30.323H547.49v-65"/><path class="ecb39306-e34a-4882-b52e-aad39bd40e6b" d="M647.573 276.819l4.986-8.636 4.986 8.636h-9.972z"/></g><g><circle class="ecb39306-e34a-4882-b52e-aad39bd40e6b" cx="604.767" cy="304.362" r="8.5"/><text class="ae81a613-07fd-4513-b301-af3b06a01c80" transform="translate(601.235 308.148)">2</text></g><text class="b5b9b2ca-2e5b-48e5-b129-2fe3a90d31cd" transform="translate(570.354 340.863)">Trigger rollout</text><g><path class="b03c401b-770f-41ea-bc4a-8336dc979d7c" d="M667.559 265.683v90H532.49V275.36"/><path class="ecb39306-e34a-4882-b52e-aad39bd40e6b" d="M537.476 276.819l-4.986-8.636-4.987 8.636h9.973z"/></g><g><circle class="ecb39306-e34a-4882-b52e-aad39bd40e6b" cx="604.767" cy="354.362" r="8.5"/><text class="ae81a613-07fd-4513-b301-af3b06a01c80" transform="translate(601.037 358.148)">3</text></g><path class="f6b19c48-befa-44b4-bccf-657449b60c1c" d="M479.99 200.683h95v40h-95z"/><text class="af402a34-1924-4671-b688-841d45f96b8e" transform="translate(501.288 224.008)">KIE server</text><path class="aab850df-1fa3-4d53-81a5-be0b9a84236a" d="M599.99 225.683h120v40h-120z"/><text class="af402a34-1924-4671-b688-841d45f96b8e" transform="translate(631.247 249.008)">ConfigMap</text><path class="f859e984-eb93-4155-b7e9-5cbdc828a20f" d="M600.99 225.683v40"/><path class="f6b19c48-befa-44b4-bccf-657449b60c1c" d="M175.01 471.683h195v40h-195z"/><text class="af402a34-1924-4671-b688-841d45f96b8e" transform="translate(229.424 495.008)">Business Central</text><path class="f6b19c48-befa-44b4-bccf-657449b60c1c" d="M390.01 471.683h195v40h-195z"/><text class="af402a34-1924-4671-b688-841d45f96b8e" transform="translate(444.424 495.008)">Business Central</text><g><text transform="translate(678.091 673.017)" font-size="10" fill="#f3f3f3" font-family="RedHatText,&quot;Red Hat Text&quot;,Overpass,&quot;Helvetica Neue&quot;,Arial,sans-serif">99_RHPAM_0920</text><path fill="none" d="M.01 650h760v40H.01z"/></g></svg>