<svg id="af03b5fe-77e1-4222-bb67-aa59f1928a05" data-name="artwork" xmlns="http://www.w3.org/2000/svg" width="760" height="504.101"><defs><style>.b0edc6d9-98ed-4c85-ba75-4bd6c28fb977,.ee5eff0e-94c9-4327-a05e-bd54e942dea9{fill:none}.ee5eff0e-94c9-4327-a05e-bd54e942dea9{stroke:#151515;stroke-linecap:round;stroke-linejoin:round}.a4fc12a4-44fe-4feb-91c2-9f9f1bfbb688,.ad468b60-fd84-4fcb-9789-c7633dccfea3,.b92d86ec-2c7e-4d8a-8aaa-185d95f4fab9{fill:#151515}.e0e3da54-7dbc-40f5-a959-99401d2f3501{fill:#e8e8e8}.a4fc12a4-44fe-4feb-91c2-9f9f1bfbb688,.b92d86ec-2c7e-4d8a-8aaa-185d95f4fab9{font-size:11px}.b92d86ec-2c7e-4d8a-8aaa-185d95f4fab9{font-family:RedHatText,&quot;Red Hat Text&quot;,Overpass,&quot;Helvetica Neue&quot;,Arial,sans-serif;font-weight:500}.b18cfda3-e3f5-4f1a-a1d2-0f537dcaceed{fill:#fff}.a4fc12a4-44fe-4feb-91c2-9f9f1bfbb688{font-family:RedHatText,&quot;Red Hat Text&quot;,Overpass,&quot;Helvetica Neue&quot;,Arial,sans-serif;font-style:italic}.b0edc6d9-98ed-4c85-ba75-4bd6c28fb977{stroke:#e8e8e8;stroke-miterlimit:10;stroke-width:1.5px}.bbc7eaf9-0b82-49da-8b64-c872bcb507fd{fill:#d9e8f7}</style></defs><text transform="translate(678.091 487.119)" font-size="10" fill="#f3f3f3" font-family="RedHatText,&quot;Red Hat Text&quot;,Overpass,&quot;Helvetica Neue&quot;,Arial,sans-serif">99_RHPAM_0920</text><path fill="none" d="M.01 464.101h760v40H.01z"/><path class="ee5eff0e-94c9-4327-a05e-bd54e942dea9" d="M412.5 111.007V60.525"/><path class="ad468b60-fd84-4fcb-9789-c7633dccfea3" d="M417.486 109.548l-4.986 8.635-4.986-8.635h9.972z"/><path class="e0e3da54-7dbc-40f5-a959-99401d2f3501" d="M260 20.683h305v40H260z"/><text class="b92d86ec-2c7e-4d8a-8aaa-185d95f4fab9" transform="translate(366.813 44.008)">Client application</text><path class="b18cfda3-e3f5-4f1a-a1d2-0f537dcaceed" d="M401 75.11h23v20.965h-23z"/><text class="a4fc12a4-44fe-4feb-91c2-9f9f1bfbb688" transform="translate(392.591 88.716)">API calls</text><path class="ee5eff0e-94c9-4327-a05e-bd54e942dea9" d="M335 354.387v82.982"/><path class="ad468b60-fd84-4fcb-9789-c7633dccfea3" d="M330.014 435.91l4.986 8.635 4.986-8.635h-9.972z"/><path class="e0e3da54-7dbc-40f5-a959-99401d2f3501" d="M260 446.887h305v40H260z"/><text class="b92d86ec-2c7e-4d8a-8aaa-185d95f4fab9" transform="translate(391.243 470.211)">Storage</text><path class="ee5eff0e-94c9-4327-a05e-bd54e942dea9" d="M335 259.711v-41.306"/><path class="ad468b60-fd84-4fcb-9789-c7633dccfea3" d="M339.986 258.252L335 266.887l-4.986-8.635h9.972zM339.986 219.864L335 211.229l-4.986 8.635h9.972z"/><path class="b18cfda3-e3f5-4f1a-a1d2-0f537dcaceed" d="M323.5 228.575h23v20.965h-23z"/><text class="a4fc12a4-44fe-4feb-91c2-9f9f1bfbb688" transform="translate(289.153 242.182)">Controller API calls</text><path class="ee5eff0e-94c9-4327-a05e-bd54e942dea9" d="M490 259.711v-50.982"/><path class="ad468b60-fd84-4fcb-9789-c7633dccfea3" d="M494.986 258.252L490 266.887l-4.986-8.635h9.972z"/><path class="b18cfda3-e3f5-4f1a-a1d2-0f537dcaceed" d="M478.5 228.575h23v20.965h-23z"/><text class="a4fc12a4-44fe-4feb-91c2-9f9f1bfbb688" transform="translate(430.375 242.182)">Request service artifacts</text><path class="b0edc6d9-98ed-4c85-ba75-4bd6c28fb977" d="M155 319.387v40H5"/><path class="b0edc6d9-98ed-4c85-ba75-4bd6c28fb977" d="M160 324.387v40H10"/><path class="e0e3da54-7dbc-40f5-a959-99401d2f3501" d="M260 120.683h305v88H260z"/><path class="b18cfda3-e3f5-4f1a-a1d2-0f537dcaceed" d="M275 153.683h275v40H275z"/><text class="b92d86ec-2c7e-4d8a-8aaa-185d95f4fab9" transform="translate(360.394 177.008)">H2 Database Engine</text><text class="b92d86ec-2c7e-4d8a-8aaa-185d95f4fab9" transform="translate(275 143.787)">KIE server</text><path class="bbc7eaf9-0b82-49da-8b64-c872bcb507fd" d="M415 269.387h150v40H415z"/><text class="b92d86ec-2c7e-4d8a-8aaa-185d95f4fab9" transform="translate(444.845 292.711)">Maven repository</text><path class="e0e3da54-7dbc-40f5-a959-99401d2f3501" d="M415 359.387h150v40H415z"/><text class="b92d86ec-2c7e-4d8a-8aaa-185d95f4fab9" transform="translate(467.895 382.434)">Indexing</text><path class="bbc7eaf9-0b82-49da-8b64-c872bcb507fd" d="M260 269.387h150v40H260z"/><text class="b92d86ec-2c7e-4d8a-8aaa-185d95f4fab9" transform="translate(308.721 292.711)">Controller</text><path class="bbc7eaf9-0b82-49da-8b64-c872bcb507fd" d="M260 314.387h305v40H260z"/><text class="b92d86ec-2c7e-4d8a-8aaa-185d95f4fab9" transform="translate(369.414 337.711)">Business Central</text><path class="e0e3da54-7dbc-40f5-a959-99401d2f3501" d="M610 269.387h150v40H610z"/><text class="b92d86ec-2c7e-4d8a-8aaa-185d95f4fab9" transform="translate(659.76 286.434)">CI/CD for<tspan x="-11.813" y="12">KJAR projects</tspan></text><g><path class="ee5eff0e-94c9-4327-a05e-bd54e942dea9" d="M250.324 334.387H150"/><path class="ad468b60-fd84-4fcb-9789-c7633dccfea3" d="M248.865 329.4l8.635 4.987-8.635 4.986V329.4z"/></g><g><path class="ee5eff0e-94c9-4327-a05e-bd54e942dea9" d="M600.324 289.387h-25.648"/><path class="ad468b60-fd84-4fcb-9789-c7633dccfea3" d="M598.865 284.4l8.635 4.987-8.635 4.986V284.4zM576.135 284.4l-8.635 4.987 8.635 4.986V284.4z"/></g><path class="b18cfda3-e3f5-4f1a-a1d2-0f537dcaceed" d="M323.5 389.613h23v31.706h-23z"/><text class="a4fc12a4-44fe-4feb-91c2-9f9f1bfbb688" transform="translate(300.774 402.59)">Access .niogit,<tspan x="-5.506" y="12">Maven repo files</tspan></text><path class="e0e3da54-7dbc-40f5-a959-99401d2f3501" d="M0 314.387h150v40H0z"/><text class="b92d86ec-2c7e-4d8a-8aaa-185d95f4fab9" transform="translate(60.408 337.433)">Users</text><path class="b18cfda3-e3f5-4f1a-a1d2-0f537dcaceed" d="M178.221 323.904h54.307v20.965h-54.307z"/><text class="a4fc12a4-44fe-4feb-91c2-9f9f1bfbb688" transform="translate(182.721 337.511)">UI access</text></svg>