<svg id="a43c1dae-9140-4960-a264-7fdd5c5d2715" data-name="artwork" xmlns="http://www.w3.org/2000/svg" width="760" height="685"><defs><style>.bffa05cf-9d25-4a26-85a9-2615b99b1ce6{fill:#d9e8f7}.abf43204-1461-49a3-816f-06ae3e36949a,.b4cec427-3e43-4a5b-935e-c8cc6a28fdd0,.b4d336fc-cb09-4272-8821-8c54a513f0f0,.f558d3b9-9b2e-47ee-93af-bf0b9de9eef7,.fe9dba92-92d7-4d8d-b5a5-809a74d4c0ec{fill:none}.abf43204-1461-49a3-816f-06ae3e36949a{stroke:#bfd9f2}.abf43204-1461-49a3-816f-06ae3e36949a,.f558d3b9-9b2e-47ee-93af-bf0b9de9eef7{stroke-miterlimit:10;stroke-width:1.5px}.b4cec427-3e43-4a5b-935e-c8cc6a28fdd0{stroke:#151515}.b4cec427-3e43-4a5b-935e-c8cc6a28fdd0,.b4d336fc-cb09-4272-8821-8c54a513f0f0,.fe9dba92-92d7-4d8d-b5a5-809a74d4c0ec{stroke-linecap:round;stroke-linejoin:round}.a6c2d765-f5ec-4fb2-8097-92e9f24dbf07,.bfaa06ee-5f42-422a-bad0-bdd477e2939c,.f423edd7-64fb-46fc-8109-8466f849800f,.ff8ee58b-407c-4577-ac45-a73706cfbf4c{fill:#151515}.f558d3b9-9b2e-47ee-93af-bf0b9de9eef7{stroke:#e8e8e8}.b4d336fc-cb09-4272-8821-8c54a513f0f0,.fe9dba92-92d7-4d8d-b5a5-809a74d4c0ec{stroke:#fff}.fe9dba92-92d7-4d8d-b5a5-809a74d4c0ec{stroke-width:8px}.ad284b45-5fda-4ee0-8c9d-5732a24501b4{fill:#e8e8e8}.a6c2d765-f5ec-4fb2-8097-92e9f24dbf07,.baec8e78-6fb2-4e9d-a8d6-3e16a622179e,.f423edd7-64fb-46fc-8109-8466f849800f,.ff8ee58b-407c-4577-ac45-a73706cfbf4c{font-size:11px}.a6c2d765-f5ec-4fb2-8097-92e9f24dbf07{font-family:RedHatText,&quot;Red Hat Text&quot;,Overpass,&quot;Helvetica Neue&quot;,Arial,sans-serif;font-weight:500}.a2527106-bc79-453d-9cb1-d5c53274356f,.baec8e78-6fb2-4e9d-a8d6-3e16a622179e{fill:#fff}.f423edd7-64fb-46fc-8109-8466f849800f{font-family:RedHatText,&quot;Red Hat Text&quot;,Overpass,&quot;Helvetica Neue&quot;,Arial,sans-serif;font-style:italic}.baec8e78-6fb2-4e9d-a8d6-3e16a622179e,.ff8ee58b-407c-4577-ac45-a73706cfbf4c{font-family:RedHatText,&quot;Red Hat Text&quot;,Overpass,&quot;Helvetica Neue&quot;,Arial,sans-serif;font-weight:700}.b4d336fc-cb09-4272-8821-8c54a513f0f0{stroke-width:2px;stroke-dasharray:4}</style></defs><path class="bffa05cf-9d25-4a26-85a9-2615b99b1ce6" d="M160.01 155.683h135v105h-135z"/><path class="abf43204-1461-49a3-816f-06ae3e36949a" d="M275.01 200.683v40h-95"/><path class="abf43204-1461-49a3-816f-06ae3e36949a" d="M280.01 200.683v45h-95"/><path class="bffa05cf-9d25-4a26-85a9-2615b99b1ce6" d="M160.01 374.768h440v146h-440z"/><path class="bffa05cf-9d25-4a26-85a9-2615b99b1ce6" transform="rotate(-180 532.49 208.183)" d="M464.99 155.683h135v105h-135z"/><path class="b4cec427-3e43-4a5b-935e-c8cc6a28fdd0" d="M269.89 215.863h52.62v196.144"/><path class="bfaa06ee-5f42-422a-bad0-bdd477e2939c" d="M317.524 410.548l4.986 8.635 4.987-8.635h-9.973z"/><path class="b4cec427-3e43-4a5b-935e-c8cc6a28fdd0" d="M480.11 215.683h-42.6v196.324"/><path class="bfaa06ee-5f42-422a-bad0-bdd477e2939c" d="M432.524 410.548l4.986 8.635 4.987-8.635h-9.973z"/><path class="b4cec427-3e43-4a5b-935e-c8cc6a28fdd0" d="M380.01 133.183V60.525"/><path class="f558d3b9-9b2e-47ee-93af-bf0b9de9eef7" d="M140.01 379.768v40h-95"/><path class="f558d3b9-9b2e-47ee-93af-bf0b9de9eef7" d="M145.01 384.768v40h-95"/><path class="b4cec427-3e43-4a5b-935e-c8cc6a28fdd0" d="M227.51 617.007v-12.824h260v-97.5"/><path class="bfaa06ee-5f42-422a-bad0-bdd477e2939c" d="M232.497 615.548l-4.987 8.635-4.986-8.635h9.973z"/><path class="b4cec427-3e43-4a5b-935e-c8cc6a28fdd0" d="M252.51 604.183v-97.5"/><path class="fe9dba92-92d7-4d8d-b5a5-809a74d4c0ec" d="M380.01 624.183v-72.5"/><path class="b4cec427-3e43-4a5b-935e-c8cc6a28fdd0" d="M380.01 617.007v-65.324h92.5v-45"/><path class="bfaa06ee-5f42-422a-bad0-bdd477e2939c" d="M384.997 615.548l-4.987 8.635-4.986-8.635h9.973z"/><path class="b4cec427-3e43-4a5b-935e-c8cc6a28fdd0" d="M267.51 506.683v45h112.5"/><path class="ad284b45-5fda-4ee0-8c9d-5732a24501b4" d="M160.01 626.683h135v40h-135z"/><text class="a6c2d765-f5ec-4fb2-8097-92e9f24dbf07" transform="translate(187.389 650.008)">NFS/GlusterFS</text><path class="ad284b45-5fda-4ee0-8c9d-5732a24501b4" d="M312.51 626.683h135v40h-135z"/><text class="a6c2d765-f5ec-4fb2-8097-92e9f24dbf07" transform="translate(355.79 650.008)">DataGrid</text><path class="fe9dba92-92d7-4d8d-b5a5-809a74d4c0ec" d="M532.51 624.183v-87.5h-250"/><path class="ad284b45-5fda-4ee0-8c9d-5732a24501b4" d="M465.01 626.683h135v40h-135z"/><text class="a6c2d765-f5ec-4fb2-8097-92e9f24dbf07" transform="translate(518.822 650.008)">AMQ</text><path class="b4cec427-3e43-4a5b-935e-c8cc6a28fdd0" d="M502.51 536.683V516.36"/><path class="bfaa06ee-5f42-422a-bad0-bdd477e2939c" d="M507.497 517.819l-4.987-8.636-4.986 8.636h9.973z"/><path class="a2527106-bc79-453d-9cb1-d5c53274356f" d="M390.01 421.683h95v40h-95z"/><text class="a6c2d765-f5ec-4fb2-8097-92e9f24dbf07" transform="translate(420.257 438.508)">Maven<tspan x="-9.41" y="12">repository</tspan></text><path class="b4cec427-3e43-4a5b-935e-c8cc6a28fdd0" d="M532.51 617.007v-80.324h-250V516.36"/><path class="bfaa06ee-5f42-422a-bad0-bdd477e2939c" d="M537.497 615.548l-4.987 8.635-4.986-8.635h9.973zM287.497 517.819l-4.987-8.636-4.986 8.636h9.973z"/><path class="a2527106-bc79-453d-9cb1-d5c53274356f" d="M275.01 421.683h95v40h-95z"/><text class="a6c2d765-f5ec-4fb2-8097-92e9f24dbf07" transform="translate(305.257 438.508)">Maven<tspan x="-9.41" y="12">repository</tspan></text><path class="a2527106-bc79-453d-9cb1-d5c53274356f" d="M242.01 564.051h23v31.706h-23zM521.342 564.051h23v31.706h-23zM366.915 574.792h23v20.965h-23z"/><text class="f423edd7-64fb-46fc-8109-8466f849800f" transform="translate(218.341 576.683)">Access .niogit,<tspan x="-5.506" y="12">Maven repo files</tspan></text><text class="f423edd7-64fb-46fc-8109-8466f849800f" transform="translate(518.453 576.684)">Event<tspan x="-9.746" y="12">messages</tspan></text><text class="f423edd7-64fb-46fc-8109-8466f849800f" transform="translate(123.603 285.863)">Update state</text><text class="f423edd7-64fb-46fc-8109-8466f849800f" transform="translate(359.611 588.683)">Indexing</text><path class="b4cec427-3e43-4a5b-935e-c8cc6a28fdd0" d="M517.49 146.007v-12.824H227.511v12.824"/><path class="bfaa06ee-5f42-422a-bad0-bdd477e2939c" d="M522.476 144.548l-4.986 8.635-4.987-8.635h9.973zM222.525 144.548l4.986 8.635 4.986-8.635h-9.972z"/><path class="ad284b45-5fda-4ee0-8c9d-5732a24501b4" d="M312.51 20.683h135v40h-135z"/><text class="a6c2d765-f5ec-4fb2-8097-92e9f24dbf07" transform="translate(346.247 44.008)">Smart router</text><path class="a2527106-bc79-453d-9cb1-d5c53274356f" d="M366.915 96.11h23v20.965h-23z"/><text class="f423edd7-64fb-46fc-8109-8466f849800f" transform="translate(350.525 109.716)">Routed calls</text><path class="b4cec427-3e43-4a5b-935e-c8cc6a28fdd0" d="M532.49 146.007V60.525"/><path class="bfaa06ee-5f42-422a-bad0-bdd477e2939c" d="M537.476 144.548l-4.986 8.635-4.987-8.635h9.973z"/><path class="ad284b45-5fda-4ee0-8c9d-5732a24501b4" d="M464.99 20.683h135v40h-135z"/><text class="a6c2d765-f5ec-4fb2-8097-92e9f24dbf07" transform="translate(486.802 44.008)">Client application</text><path class="a2527106-bc79-453d-9cb1-d5c53274356f" d="M520.99 75.11h23v20.965h-23z"/><text class="f423edd7-64fb-46fc-8109-8466f849800f" transform="translate(512.581 88.716)">API calls</text><path class="b4cec427-3e43-4a5b-935e-c8cc6a28fdd0" d="M99.941 270.36v30.323H215.01v-65"/><path class="bfaa06ee-5f42-422a-bad0-bdd477e2939c" d="M94.955 271.819l4.986-8.636 4.986 8.636h-9.972z"/><circle class="bfaa06ee-5f42-422a-bad0-bdd477e2939c" cx="155.233" cy="299.362" r="8.5"/><text class="baec8e78-6fb2-4e9d-a8d6-3e16a622179e" transform="translate(151.699 303.148)">2</text><text class="f423edd7-64fb-46fc-8109-8466f849800f" transform="translate(120.819 335.863)">Trigger rollout</text><path class="b4cec427-3e43-4a5b-935e-c8cc6a28fdd0" d="M84.941 260.683v90H230.01V270.36"/><path class="bfaa06ee-5f42-422a-bad0-bdd477e2939c" d="M234.997 271.819l-4.987-8.636-4.986 8.636h9.973z"/><circle class="bfaa06ee-5f42-422a-bad0-bdd477e2939c" cx="155.233" cy="349.362" r="8.5"/><text class="baec8e78-6fb2-4e9d-a8d6-3e16a622179e" transform="translate(151.501 353.148)">3</text><path class="fe9dba92-92d7-4d8d-b5a5-809a74d4c0ec" d="M321.732 350.683h132.32M321.732 330.683h132.32"/><path class="b4cec427-3e43-4a5b-935e-c8cc6a28fdd0" d="M245.01 421.683V270.3"/><path class="bfaa06ee-5f42-422a-bad0-bdd477e2939c" d="M249.997 271.759l-4.987-8.635-4.986 8.635h9.973z"/><path class="b4d336fc-cb09-4272-8821-8c54a513f0f0" d="M159.01 155.683v40"/><path class="b4cec427-3e43-4a5b-935e-c8cc6a28fdd0" d="M584.992 441.683h30.324"/><path class="bfaa06ee-5f42-422a-bad0-bdd477e2939c" d="M613.857 446.67l8.635-4.987-8.635-4.986v9.973z"/><path class="abf43204-1461-49a3-816f-06ae3e36949a" d="M579.99 200.683v40h-95"/><path class="abf43204-1461-49a3-816f-06ae3e36949a" d="M584.99 205.683v40h-95"/><path class="b4cec427-3e43-4a5b-935e-c8cc6a28fdd0" d="M517.49 421.683V270.3"/><path class="bfaa06ee-5f42-422a-bad0-bdd477e2939c" d="M522.476 271.759l-4.986-8.635-4.987 8.635h9.973z"/><path class="b4d336fc-cb09-4272-8821-8c54a513f0f0" d="M600.99 155.683v40"/><path class="bffa05cf-9d25-4a26-85a9-2615b99b1ce6" d="M160.01 387.906h187.744v15.952H160.01zM160.01 168.821h135v15.952h-135zM464.99 168.821h135v15.952h-135z"/><text class="ff8ee58b-407c-4577-ac45-a73706cfbf4c" transform="translate(175.01 399.03)">OpenShift Deployment Config</text><path class="b4cec427-3e43-4a5b-935e-c8cc6a28fdd0" d="M584.99 486.683h157v-246h-12.324"/><path class="bfaa06ee-5f42-422a-bad0-bdd477e2939c" d="M731.125 235.697l-8.635 4.986 8.635 4.987v-9.973z"/><path class="b4cec427-3e43-4a5b-935e-c8cc6a28fdd0" d="M175.01 486.683h-157v-246h12.324"/><path class="bfaa06ee-5f42-422a-bad0-bdd477e2939c" d="M28.875 245.67l8.635-4.987-8.635-4.986v9.973z"/><path class="b4cec427-3e43-4a5b-935e-c8cc6a28fdd0" d="M150.334 466.768H87.51v-52"/><path class="bfaa06ee-5f42-422a-bad0-bdd477e2939c" d="M148.875 461.782l8.635 4.986-8.635 4.986v-9.972z"/><circle class="bfaa06ee-5f42-422a-bad0-bdd477e2939c" cx="437.51" cy="245.244" r="8.5"/><text class="baec8e78-6fb2-4e9d-a8d6-3e16a622179e" transform="translate(433.465 249.029)">4</text><path class="a2527106-bc79-453d-9cb1-d5c53274356f" d="M76.01 432.857h23v20.965h-23z"/><text class="f423edd7-64fb-46fc-8109-8466f849800f" transform="translate(64.856 446.463)">UI access</text><path class="a2527106-bc79-453d-9cb1-d5c53274356f" d="M9.579 322.256h23v20.965h-23z"/><text class="f423edd7-64fb-46fc-8109-8466f849800f" transform="translate(.031 335.863)">Discover</text><path class="a2527106-bc79-453d-9cb1-d5c53274356f" d="M726.99 322.256h23v20.965h-23z"/><text class="f423edd7-64fb-46fc-8109-8466f849800f" transform="translate(717.441 335.863)">Discover</text><path class="b4cec427-3e43-4a5b-935e-c8cc6a28fdd0" d="M245.01 330.683h257.5V270.36"/><path class="bfaa06ee-5f42-422a-bad0-bdd477e2939c" d="M507.497 271.819l-4.987-8.636-4.986 8.636h9.973z"/><path class="fe9dba92-92d7-4d8d-b5a5-809a74d4c0ec" d="M260.01 315.486v31.305"/><path class="b4cec427-3e43-4a5b-935e-c8cc6a28fdd0" d="M517.49 350.683H260.011V270.36"/><path class="bfaa06ee-5f42-422a-bad0-bdd477e2939c" d="M264.997 271.819l-4.986-8.636-4.986 8.636h9.972z"/><circle class="bfaa06ee-5f42-422a-bad0-bdd477e2939c" cx="380.01" cy="329.362" r="8.5"/><text class="baec8e78-6fb2-4e9d-a8d6-3e16a622179e" transform="translate(377.643 333.148)">1</text><text class="f423edd7-64fb-46fc-8109-8466f849800f" transform="translate(341.329 315.863)">Update services</text><circle class="bfaa06ee-5f42-422a-bad0-bdd477e2939c" cx="380.01" cy="350.858" r="8.5"/><text class="baec8e78-6fb2-4e9d-a8d6-3e16a622179e" transform="translate(377.643 354.643)">1</text><path class="a2527106-bc79-453d-9cb1-d5c53274356f" d="M175.01 195.683h95v40h-95z"/><text class="a6c2d765-f5ec-4fb2-8097-92e9f24dbf07" transform="translate(196.309 219.008)">KIE server</text><path class="ad284b45-5fda-4ee0-8c9d-5732a24501b4" d="M40.01 220.683h120v40h-120z"/><text class="a6c2d765-f5ec-4fb2-8097-92e9f24dbf07" transform="translate(71.268 244.008)">ConfigMap</text><path class="b4d336fc-cb09-4272-8821-8c54a513f0f0" d="M159.01 220.683v40"/><path class="a2527106-bc79-453d-9cb1-d5c53274356f" d="M175.01 421.683h95v40h-95z"/><text class="a6c2d765-f5ec-4fb2-8097-92e9f24dbf07" transform="translate(196.232 445.008)">Controller</text><path class="ad284b45-5fda-4ee0-8c9d-5732a24501b4" d="M40.01 374.768h95v40h-95z"/><text class="a6c2d765-f5ec-4fb2-8097-92e9f24dbf07" transform="translate(72.919 397.815)">Users</text><path class="ad284b45-5fda-4ee0-8c9d-5732a24501b4" d="M624.99 421.683h95v40h-95z"/><text class="a6c2d765-f5ec-4fb2-8097-92e9f24dbf07" transform="translate(647.25 438.73)">CI/CD for<tspan x="-11.813" y="12">KJAR projects</tspan></text><path class="a2527106-bc79-453d-9cb1-d5c53274356f" d="M490.01 421.683h95v40h-95z"/><text class="a6c2d765-f5ec-4fb2-8097-92e9f24dbf07" transform="translate(511.232 445.008)">Controller</text><g><path class="b4cec427-3e43-4a5b-935e-c8cc6a28fdd0" d="M365.01 70.202v15.323h-137.5v-25"/><path class="bfaa06ee-5f42-422a-bad0-bdd477e2939c" d="M360.024 71.661l4.986-8.636 4.987 8.636h-9.973z"/></g><g><path class="ad284b45-5fda-4ee0-8c9d-5732a24501b4" d="M160.01 20.683h135v40h-135z"/><text class="a6c2d765-f5ec-4fb2-8097-92e9f24dbf07" transform="translate(181.823 44.008)">Client application</text></g><path class="a2527106-bc79-453d-9cb1-d5c53274356f" d="M270.269 75.11h48.969v20.965h-48.969z"/><text class="f423edd7-64fb-46fc-8109-8466f849800f" transform="translate(274.844 88.716)">API calls</text><text class="ff8ee58b-407c-4577-ac45-a73706cfbf4c" transform="translate(175.01 180.787)">Deployment Config</text><g><circle class="bfaa06ee-5f42-422a-bad0-bdd477e2939c" cx="322.51" cy="245.244" r="8.5"/><text class="baec8e78-6fb2-4e9d-a8d6-3e16a622179e" transform="translate(318.465 249.029)">4</text></g><text class="f423edd7-64fb-46fc-8109-8466f849800f" transform="translate(337.177 242.368)">Request<tspan x="0" y="12">service artifacts</tspan></text><text class="ff8ee58b-407c-4577-ac45-a73706cfbf4c" transform="translate(479.99 180.787)">Deployment Config</text><text class="f423edd7-64fb-46fc-8109-8466f849800f" transform="translate(573.137 285.863)">Update state</text><g><path class="b4cec427-3e43-4a5b-935e-c8cc6a28fdd0" d="M652.559 270.36v30.323H547.49v-65"/><path class="bfaa06ee-5f42-422a-bad0-bdd477e2939c" d="M647.573 271.819l4.986-8.636 4.986 8.636h-9.972z"/></g><g><circle class="bfaa06ee-5f42-422a-bad0-bdd477e2939c" cx="604.767" cy="299.362" r="8.5"/><text class="baec8e78-6fb2-4e9d-a8d6-3e16a622179e" transform="translate(601.235 303.148)">2</text></g><text class="f423edd7-64fb-46fc-8109-8466f849800f" transform="translate(570.354 335.863)">Trigger rollout</text><g><path class="b4cec427-3e43-4a5b-935e-c8cc6a28fdd0" d="M667.559 260.683v90H532.49V270.36"/><path class="bfaa06ee-5f42-422a-bad0-bdd477e2939c" d="M537.476 271.819l-4.986-8.636-4.987 8.636h9.973z"/></g><g><circle class="bfaa06ee-5f42-422a-bad0-bdd477e2939c" cx="604.767" cy="349.362" r="8.5"/><text class="baec8e78-6fb2-4e9d-a8d6-3e16a622179e" transform="translate(601.037 353.148)">3</text></g><path class="a2527106-bc79-453d-9cb1-d5c53274356f" d="M479.99 195.683h95v40h-95z"/><text class="a6c2d765-f5ec-4fb2-8097-92e9f24dbf07" transform="translate(501.288 219.008)">KIE server</text><path class="ad284b45-5fda-4ee0-8c9d-5732a24501b4" d="M599.99 220.683h120v40h-120z"/><text class="a6c2d765-f5ec-4fb2-8097-92e9f24dbf07" transform="translate(631.247 244.008)">ConfigMap</text><path class="b4d336fc-cb09-4272-8821-8c54a513f0f0" d="M600.99 220.683v40"/><path class="a2527106-bc79-453d-9cb1-d5c53274356f" d="M175.01 466.683h195v40h-195z"/><text class="a6c2d765-f5ec-4fb2-8097-92e9f24dbf07" transform="translate(229.424 490.008)">Business Central</text><path class="a2527106-bc79-453d-9cb1-d5c53274356f" d="M390.01 466.683h195v40h-195z"/><text class="a6c2d765-f5ec-4fb2-8097-92e9f24dbf07" transform="translate(444.424 490.008)">Business Central</text><g><text transform="translate(678.091 668.017)" font-size="10" fill="#f3f3f3" font-family="RedHatText,&quot;Red Hat Text&quot;,Overpass,&quot;Helvetica Neue&quot;,Arial,sans-serif">99_RHPAM_0920</text><path fill="none" d="M.01 645h760v40H.01z"/></g></svg>